HIERARCHY
ROOT Hips
{
	OFFSET 0.00000 0.00000 0.00000
	CHANNELS 6 Xposition Yposition Zposition Zrotation Yrotation Xrotation 
	JOINT LHipJoint
	{
		OFFSET 0 0 0
		CHANNELS 3 Zrotation Yrotation Xrotation
		JOINT LeftHip
		{
			OFFSET 1.36306 -1.79463 0.83929
			CHANNELS 3 Zrotation Yrotation Xrotation
			JOINT LeftKnee
			{
				OFFSET 2.44811 -6.72613 0.00000
				CHANNELS 3 Zrotation Yrotation Xrotation
				JOINT LeftAnkle
				{
					OFFSET 2.56220 -7.03959 0.00000
					CHANNELS 3 Zrotation Yrotation Xrotation
					JOINT LeftToe
					{
						OFFSET 0.15764 -0.43311 2.32255
						CHANNELS 3 Zrotation Yrotation Xrotation
						End Site
						{
							OFFSET 0.00000 -0.00000 1.18966
						}
					}
				}
			}
		}
	}
	JOINT RHipJoint
	{
		OFFSET 0 0 0
		CHANNELS 3 Zrotation Yrotation Xrotation
		JOINT RightHip
		{
			OFFSET -1.30552 -1.79463 0.83929
			CHANNELS 3 Zrotation Yrotation Xrotation
			JOINT RightKnee
			{
				OFFSET -2.54253 -6.98555 0.00000
				CHANNELS 3 Zrotation Yrotation Xrotation
				JOINT RightAnkle
				{
					OFFSET -2.56826 -7.05623 0.00000
					CHANNELS 3 Zrotation Yrotation Xrotation
					JOINT RightToe
					{
						OFFSET -0.16473 -0.45259 2.36315
						CHANNELS 3 Zrotation Yrotation Xrotation
						End Site
						{
							OFFSET -0.00000 -0.00000 1.21082
						}
					}
				}
			}
		}
	}
	JOINT lowerback
	{
		OFFSET 0 0 0
		CHANNELS 3 Zrotation Yrotation Xrotation
		JOINT Chest
		{
			OFFSET 0.02827 2.03559 -0.19338
			CHANNELS 3 Zrotation Yrotation Xrotation
			JOINT Chest2
			{
				OFFSET 0.05672 2.04885 -0.04275
				CHANNELS 3 Zrotation Yrotation Xrotation
				JOINT lowerneck
				{
					OFFSET 0 0 0
					CHANNELS 3 Zrotation Yrotation Xrotation
					JOINT Neck
					{
						OFFSET -0.05417 1.74624 0.17202
						CHANNELS 3 Zrotation Yrotation Xrotation
						JOINT Head
						{
							OFFSET 0.10407 1.76136 -0.12397
							CHANNELS 3 Zrotation Yrotation Xrotation
							End Site
							{
								OFFSET 0.03720 1.77044 -0.06241
							}
						}
					}
				}
				JOINT LeftCollar
				{
					OFFSET 0 0 0
					CHANNELS 3 Zrotation Yrotation Xrotation
					JOINT LeftShoulder
					{
						OFFSET 3.36241 1.20089 -0.31121
CHANNELS 3 Zrotation Xrotation Yrotation
						JOINT LeftElbow
						{
OFFSET 0 -4.983000 -0.000000
CHANNELS 3 Zrotation Xrotation Yrotation
							JOINT LeftWrist
							{
OFFSET 0 -3.483560 -0.000000
CHANNELS 3 Zrotation Xrotation Yrotation
								JOINT lhand
								{
									OFFSET 0 0 0
CHANNELS 3 Zrotation Xrotation Yrotation
									JOINT LFingers
									{
OFFSET 0 -0.715260 -0.000000
CHANNELS 3 Zrotation Xrotation Yrotation
										End Site
										{
OFFSET 0 -0.576660 -0.000000
										}
									}
								}
								JOINT LThumb
								{
OFFSET 0 0.000000 0.000000
CHANNELS 3 Zrotation Xrotation Yrotation
									End Site
									{
OFFSET 0 -0.585470 0.585470
									}
								}
							}
						}
					}
				}
				JOINT RightCollar
				{
					OFFSET 0 0 0
					CHANNELS 3 Zrotation Yrotation Xrotation
					JOINT RightShoulder
					{
						OFFSET -3.13660 1.37405 -0.40465
CHANNELS 3 Zrotation Xrotation Yrotation
						JOINT RightElbow
						{
OFFSET 0 -5.241900 -0.000000
CHANNELS 3 Zrotation Xrotation Yrotation
							JOINT RightWrist
							{
OFFSET 0 -3.444170 -0.000000
CHANNELS 3 Zrotation Xrotation Yrotation
								JOINT rhand
								{
									OFFSET 0 0 0
CHANNELS 3 Zrotation Xrotation Yrotation
									JOINT RFingers
									{
OFFSET 0 -0.622530 -0.000000
CHANNELS 3 Zrotation Xrotation Yrotation
										End Site
										{
OFFSET 0 -0.501900 -0.000000
										}
									}
								}
								JOINT RThumb
								{
OFFSET 0 0.000000 0.000000
CHANNELS 3 Zrotation Xrotation Yrotation
									End Site
									{
OFFSET 0 -0.509560 0.509560
									}
								}
							}
						}
					}
				}
			}
		}
	}
}
MOTION
Frames: 6
Frame Time: 0.008333333333333333
21.459206 17.801796 25.705835 2.837162 -126.554870 -360.800795 0.000000 0.000000 0.000000 -23.884619 2.025340 11.411405 0.542649 4.719606 13.110415 -0.099086 -14.990386 -9.387291 0.730960 5.462230 15.231679 0.000000 0.000000 0.000000 13.678056 9.965343 -26.112241 -0.883749 -5.992385 16.762401 0.008392 3.419719 -1.942872 -0.390127 4.010369 -11.105945 -3.329354 2.496159 11.744467 3.267278 2.958748 1.426142 4.846013 1.515283 -5.436495 0.394367 7.116304 -4.659625 -3.469767 9.454074 -1.000637 -0.933662 4.672881 0.652238 0.000000 0.000000 0.000000 4.720576 -0.923168 -29.740812 29.224282 -40.204272 10.910928 15.894489 -10.486078 10.499459 0.000000 0.000000 0.000000 -7.125000 0.000000 0.000000 -7.887574 19.127965 -4.914100 0.000000 0.000000 0.000000 -7.070000 -0.242128 7.845223 -12.721385 -20.877466 -2.353120 -18.902988 -2.462392 21.023338 0.000000 0.000000 0.000000 7.125000 0.000000 0.000000 9.912559 51.821445 -1.678911
20.681084 17.814223 24.964166 4.526053 -122.848902 -362.804900 0.000000 0.000000 0.000000 -22.526706 -0.265441 14.481150 0.830132 5.811107 16.237652 -0.212697 -14.114003 -7.150666 0.277643 3.385171 9.353397 0.000000 0.000000 0.000000 15.588449 10.429590 -23.449591 -1.336808 -7.320668 20.669087 0.037906 3.385253 0.833685 -0.146582 2.424115 -6.681257 -2.625063 1.910405 11.369455 4.178077 2.279573 1.728812 5.540734 1.142317 -4.843756 0.186980 7.955294 -5.064289 -4.006010 10.694589 1.271060 -0.962707 5.253049 1.486451 0.000000 0.000000 0.000000 2.456066 -0.708747 -24.513867 22.573634 -33.617258 6.901610 20.203314 -8.283565 9.489054 0.000000 0.000000 0.000000 -7.125000 0.000000 0.000000 -4.824796 19.899177 -2.905002 0.000000 0.000000 0.000000 -7.740447 -0.942824 6.932718 -12.812478 -21.011748 -2.385628 -20.089208 1.281055 21.791188 0.000000 0.000000 0.000000 7.125000 0.000000 0.000000 9.012080 52.815557 -1.746255
19.859176 17.926482 24.305022 8.001110 -118.663497 -366.713339 0.000000 0.000000 0.000000 -19.631507 -2.475833 10.308597 2.605151 10.018917 29.045038 -0.658829 -14.309704 3.751095 0.204473 2.910467 8.029628 0.000000 0.000000 0.000000 17.609791 10.027845 -19.067602 -1.600011 -7.977909 22.646991 -0.006708 -0.462205 -1.794915 -0.011349 0.558618 -1.535354 0.326876 1.542122 12.134311 4.503569 2.158684 1.599222 4.208713 1.020481 -5.293076 1.042691 8.424198 -5.583968 -4.896691 11.411621 3.590735 -1.274136 5.547931 2.477021 0.000000 0.000000 0.000000 1.869545 0.522109 -21.748781 16.771929 -26.553253 3.986457 20.570951 -5.957787 7.070432 0.000000 0.000000 0.000000 -7.125000 0.000000 0.000000 -4.546122 22.440468 -2.473430 0.000000 0.000000 0.000000 -7.976662 -0.785353 6.227946 -12.581323 -20.670552 -2.303410 -21.049157 -0.697430 23.042930 0.000000 0.000000 0.000000 7.125000 0.000000 0.000000 8.508277 54.281222 -1.951095
19.076808 18.082636 23.697098 14.857983 -113.468456 -373.778018 0.000000 0.000000 0.000000 -14.525474 -4.913250 1.135246 6.311159 14.717624 46.207754 0.178123 -10.557561 17.481879 0.268076 3.320887 9.174308 0.000000 0.000000 0.000000 20.821548 5.996736 -13.819357 -1.340667 -7.330059 20.697461 0.008568 -3.028820 -3.810477 -0.057124 -1.541746 4.240848 2.969938 1.436413 11.817256 5.110685 2.308453 1.888952 3.335279 1.024747 -4.740748 2.098293 8.128785 -5.380542 -5.335123 10.999635 4.245873 -1.603918 5.340216 2.749773 0.000000 0.000000 0.000000 1.270688 0.463831 -18.448325 12.753892 -20.925118 2.364961 14.969327 2.213312 4.237648 0.000000 0.000000 0.000000 -7.125000 0.000000 0.000000 -8.786272 25.582621 -4.176191 0.000000 0.000000 0.000000 -8.727042 -0.993155 5.544617 -11.924822 -19.691782 -2.076861 -22.037774 -1.263054 20.333842 0.000000 0.000000 0.000000 7.125000 0.000000 0.000000 6.575436 51.653265 -1.086608
18.343076 18.209142 23.181037 23.768167 -110.616304 -383.497793 0.000000 0.000000 0.000000 -8.888809 -4.026648 -7.474172 10.045936 17.434238 59.639845 0.280337 -9.409076 17.425668 0.322468 3.649835 10.093488 0.000000 0.000000 0.000000 24.404301 1.449944 -7.717014 -0.850737 -5.881621 16.441555 0.037509 -4.670801 -5.072013 -0.096881 -2.006947 5.524954 5.301790 2.143484 12.635293 5.695051 3.557157 2.183723 2.429758 1.576131 -4.820391 2.269843 7.475201 -6.116892 -5.357870 10.166425 5.522827 -1.637590 4.894045 3.303393 0.000000 0.000000 0.000000 1.080088 1.639804 -18.358439 12.162695 -20.048160 2.157690 8.074812 5.555219 4.688124 0.000000 0.000000 0.000000 -7.125000 0.000000 0.000000 -13.871604 25.219942 -6.831542 0.000000 0.000000 0.000000 -10.231490 -2.325474 4.040205 -10.561805 -17.613301 -1.641002 -22.337200 6.372853 21.312814 0.000000 0.000000 0.000000 7.125000 0.000000 0.000000 6.583769 52.728726 -1.264934
17.637975 18.264829 22.802158 33.289148 -108.054671 -392.894033 0.000000 0.000000 0.000000 -4.721451 -2.303807 -16.508364 11.972064 18.378764 65.900130 -0.216055 -9.722312 9.118288 0.228560 3.076561 8.492016 0.000000 0.000000 0.000000 26.911751 -0.649491 -2.382905 -0.445954 -4.284579 11.878599 0.177443 -8.100763 -6.368436 -0.048992 -1.392008 3.828561 7.412842 2.823713 12.242088 5.671608 4.653807 2.398258 1.086695 2.093392 -4.206181 1.443938 7.002536 -7.146577 -3.786759 9.528223 6.520406 -0.968946 4.592076 3.667813 0.000000 0.000000 0.000000 1.661730 4.211644 -20.699627 14.306851 -23.171610 2.947831 7.485673 2.434748 6.145927 0.000000 0.000000 0.000000 -7.125000 0.000000 0.000000 -14.153408 23.798513 -7.460132 0.000000 0.000000 0.000000 -11.539673 -4.504624 4.906306 -9.695500 -16.261911 -1.388460 -20.623230 9.108176 23.133487 0.000000 0.000000 0.000000 7.125000 0.000000 0.000000 8.980574 54.291660 -2.063482
